<svg width="61" height="60" viewBox="0 0 61 60" fill="none" xmlns="http://www.w3.org/2000/svg">
<path d="M34 37.5H41.5V54.375H45.25V35.625C45.25 34.5887 44.4113 33.75 43.375 33.75H32.125C31.0887 33.75 30.25 34.5887 30.25 35.625V54.375H34V37.5Z" fill="#FFB200"/>
<path d="M50.875 18.75H41.5V22.5H49V52.5H11.5V22.5H19V18.75H9.625C8.58869 18.75 7.75 19.5887 7.75 20.625V54.375C7.75 55.4113 8.58869 56.25 9.625 56.25H50.875C51.9113 56.25 52.75 55.4113 52.75 54.375V20.625C52.75 19.5887 51.9113 18.75 50.875 18.75Z" fill="#FFB200"/>
<path d="M19 18.75H7.75V15H19V11.25H5.875C4.83869 11.25 4 12.0887 4 13.125V20.625C4 21.6613 4.83869 22.5 5.875 22.5H19V18.75Z" fill="#FFB200"/>
<path d="M54.625 11.25H41.5V15H52.75V18.75H41.5V22.5H54.625C55.6613 22.5 56.5 21.6613 56.5 20.625V13.125C56.5 12.0887 55.6613 11.25 54.625 11.25Z" fill="#FFB200"/>
<path d="M41.5 30H19C17.9637 30 17.125 29.1613 17.125 28.125V5.625C17.125 4.58869 17.9637 3.75 19 3.75H41.5C42.5363 3.75 43.375 4.58869 43.375 5.625V28.125C43.375 29.1613 42.5363 30 41.5 30ZM20.875 26.25H39.625V7.5H20.875V26.25Z" fill="#FFB200"/>
<path d="M34 15H32.125V13.125C32.125 12.0887 31.2863 11.25 30.25 11.25C29.2137 11.25 28.375 12.0887 28.375 13.125V15H26.5C25.4637 15 24.625 15.8387 24.625 16.875C24.625 17.9113 25.4637 18.75 26.5 18.75H28.375V20.625C28.375 21.6613 29.2137 22.5 30.25 22.5C31.2863 22.5 32.125 21.6613 32.125 20.625V18.75H34C35.0363 18.75 35.875 17.9113 35.875 16.875C35.875 15.8387 35.0363 15 34 15Z" fill="#FFB200"/>
<path d="M24.625 45H17.125C16.0887 45 15.25 44.1613 15.25 43.125V39.375C15.25 36.2732 17.7732 33.75 20.875 33.75C23.9768 33.75 26.5 36.2732 26.5 39.375V43.125C26.5 44.1613 25.6613 45 24.625 45ZM19 41.25H22.75V39.375C22.75 38.3404 21.9096 37.5 20.875 37.5C19.8404 37.5 19 38.3404 19 39.375V41.25Z" fill="#FFB200"/>
</svg>
