<svg width="61" height="60" viewBox="0 0 61 60" fill="none" xmlns="http://www.w3.org/2000/svg">
<path d="M53.25 56.25H30.75C29.7146 56.25 28.875 55.4104 28.875 54.375V5.625C28.875 4.58962 29.7146 3.75 30.75 3.75H53.25C54.2854 3.75 55.125 4.58962 55.125 5.625V54.375C55.125 55.4104 54.2854 56.25 53.25 56.25ZM32.625 52.5H51.375V7.5H32.625V52.5Z" fill="#FF684C"/>
<path d="M45.75 56.25H38.25C37.2146 56.25 36.375 55.4104 36.375 54.375V43.125C36.375 42.0896 37.2146 41.25 38.25 41.25H45.75C46.7854 41.25 47.625 42.0896 47.625 43.125V54.375C47.625 55.4104 46.7854 56.25 45.75 56.25ZM40.125 52.5H43.875V45H40.125V52.5Z" fill="#FF684C"/>
<path d="M30.75 56.25H8.25C7.21462 56.25 6.375 55.4104 6.375 54.375V24.375C6.375 23.3396 7.21462 22.5 8.25 22.5H30.75C31.7854 22.5 32.625 23.3396 32.625 24.375V54.375C32.625 55.4104 31.7854 56.25 30.75 56.25ZM10.125 52.5H28.875V26.25H10.125V52.5Z" fill="#FF684C"/>
<path d="M45.75 15H43.875V13.125C43.875 12.0896 43.0354 11.25 42 11.25C40.9646 11.25 40.125 12.0896 40.125 13.125V15H38.25C37.2146 15 36.375 15.8396 36.375 16.875C36.375 17.9104 37.2146 18.75 38.25 18.75H40.125V20.625C40.125 21.6604 40.9646 22.5 42 22.5C43.0354 22.5 43.875 21.6604 43.875 20.625V18.75H45.75C46.7854 18.75 47.625 17.9104 47.625 16.875C47.625 15.8396 46.7854 15 45.75 15Z" fill="#FF684C"/>
<path d="M15.75 37.5C14.7146 37.5 13.875 36.6604 13.875 35.625V31.875C13.875 30.8396 14.7146 30 15.75 30C16.7854 30 17.625 30.8396 17.625 31.875V35.625C17.625 36.6604 16.7854 37.5 15.75 37.5Z" fill="#FF684C"/>
<path d="M15.75 48.75C14.7146 48.75 13.875 47.9104 13.875 46.875V43.125C13.875 42.0896 14.7146 41.25 15.75 41.25C16.7854 41.25 17.625 42.0896 17.625 43.125V46.875C17.625 47.9104 16.7854 48.75 15.75 48.75Z" fill="#FF684C"/>
<path d="M23.25 37.5C22.2146 37.5 21.375 36.6604 21.375 35.625V31.875C21.375 30.8396 22.2146 30 23.25 30C24.2854 30 25.125 30.8396 25.125 31.875V35.625C25.125 36.6604 24.2854 37.5 23.25 37.5Z" fill="#FF684C"/>
<path d="M23.25 48.75C22.2146 48.75 21.375 47.9104 21.375 46.875V43.125C21.375 42.0896 22.2146 41.25 23.25 41.25C24.2854 41.25 25.125 42.0896 25.125 43.125V46.875C25.125 47.9104 24.2854 48.75 23.25 48.75Z" fill="#FF684C"/>
<path d="M45.75 37.5H38.25C37.2146 37.5 36.375 36.6604 36.375 35.625C36.375 34.5896 37.2146 33.75 38.25 33.75H45.75C46.7854 33.75 47.625 34.5896 47.625 35.625C47.625 36.6604 46.7854 37.5 45.75 37.5Z" fill="#FF684C"/>
</svg>
