<svg width="24" height="24" viewBox="0 0 24 24" fill="none" xmlns="http://www.w3.org/2000/svg">
<path fill-rule="evenodd" clip-rule="evenodd" d="M9.59994 4.7999C6.94898 4.7999 4.79996 6.94894 4.79996 9.5999C4.79996 12.2509 6.94898 14.3999 9.59994 14.3999C12.2509 14.3999 14.3999 12.2509 14.3999 9.5999C14.3999 6.94894 12.2509 4.7999 9.59994 4.7999ZM2.39996 9.5999C2.39996 5.62345 5.6235 2.3999 9.59994 2.3999C13.5764 2.3999 16.7999 5.62345 16.7999 9.5999C16.7999 11.1549 16.307 12.5948 15.4688 13.7717L21.2484 19.5514C21.7171 20.02 21.7171 20.7798 21.2484 21.2484C20.7798 21.7171 20.02 21.7171 19.5514 21.2484L13.7718 15.4688C12.5948 16.307 11.1549 16.7999 9.59994 16.7999C5.6235 16.7999 2.39996 13.5764 2.39996 9.5999Z" fill="#9CA3AF"/>
</svg>
